<svg width="27" height="29" viewBox="0 0 27 29" fill="none" xmlns="http://www.w3.org/2000/svg">
<path fill-rule="evenodd" clip-rule="evenodd" d="M24.5404 14.5926C24.8841 14.7603 25.0441 15.2157 24.8978 15.6096C24.7516 16.0037 24.3545 16.1872 24.0109 16.0195L21.9708 15.0177C21.6271 14.85 21.4671 14.3946 21.6133 14.0006C21.6354 13.9411 21.6633 13.8865 21.6957 13.837L21.6954 13.8367L23.0325 11.8058C23.2577 11.4637 23.6821 11.3957 23.9804 11.6539C24.2787 11.9122 24.338 12.3988 24.1128 12.7408L23.9461 12.994C24.9976 12.254 25.6444 10.9487 25.6444 9.5272C25.6444 7.55402 24.3909 5.85202 22.6949 5.51977C22.3263 5.44768 22.0786 5.04665 22.1415 4.62417C22.2043 4.20163 22.5541 3.91757 22.9225 3.98965C25.2651 4.44853 27 6.80124 27 9.5272C27 11.6206 25.971 13.5364 24.3624 14.5052L24.5404 14.5926ZM8.56233 0.92334H18.4376C19.652 0.92334 20.6424 2.05902 20.6424 3.45138V4.92132C20.6424 6.31368 19.652 7.44936 18.4376 7.44936H8.56233C7.34801 7.44936 6.35754 6.31368 6.35754 4.92132V3.45138C6.35754 2.05902 7.34801 0.92334 8.56233 0.92334ZM8.56233 21.3973H18.4376C19.652 21.3973 20.6424 22.533 20.6424 23.9254V25.3953C20.6424 26.7877 19.652 27.9233 18.4376 27.9233H8.56233C7.34801 27.9233 6.35754 26.7877 6.35754 25.3953V23.9254C6.35754 22.533 7.34801 21.3973 8.56233 21.3973ZM7.82599 11.2916H20.3239C20.512 11.2916 20.6739 11.3831 20.7884 11.5543C20.903 11.7254 20.9382 11.9284 20.8895 12.1367L19.7395 17.0576C19.67 17.3552 19.4427 17.5552 19.174 17.5552H6.67606C6.48796 17.5552 6.32608 17.4636 6.21152 17.2925C6.09697 17.1214 6.06178 16.9184 6.11047 16.7101L7.2604 11.7892C7.32999 11.4916 7.55723 11.2916 7.82599 11.2916ZM2.98915 25.7834C2.64549 25.9511 2.2484 25.7676 2.10216 25.3735C1.95592 24.9795 2.11594 24.5242 2.4596 24.3565L2.63758 24.2691C1.02894 23.3002 0 21.3846 0 19.2911C0 16.5651 1.73489 14.2124 4.07745 13.7536C4.44596 13.6815 4.79566 13.9655 4.85853 14.3881C4.9214 14.8106 4.67366 15.2116 4.30514 15.2837C2.60912 15.6159 1.35565 17.3178 1.35565 19.2911C1.35565 20.7126 2.00241 22.0179 3.05382 22.7579L2.88714 22.5048C2.66193 22.1627 2.72124 21.6761 3.01954 21.4179C3.31784 21.1597 3.74227 21.2277 3.96742 21.5697L5.30454 23.6007L5.3042 23.601C5.33668 23.6504 5.36453 23.7051 5.38661 23.7646C5.53285 24.1586 5.37283 24.614 5.02917 24.7816L2.98915 25.7834Z" fill="#6E42D3"/>
<rect x="6.72773" y="21.8" width="13.4" height="6.4" rx="2.2" fill="white" stroke="#0E1D3F" stroke-width="1.6"/>
<rect x="6.72773" y="0.8" width="13.4" height="6.4" rx="2.2" fill="white" stroke="#0E1D3F" stroke-width="1.6"/>
</svg>
