<svg width="33" height="27" viewBox="0 0 33 27" fill="none" xmlns="http://www.w3.org/2000/svg">
<path d="M9.37195 1.2168C10.3747 0.80238 11.4782 0.69411 12.5428 0.905273C13.6076 1.11646 14.5851 1.63796 15.3524 2.40332C16.1198 3.16878 16.6427 4.1438 16.8544 5.20508C17.066 6.26626 16.9578 7.36644 16.5428 8.36621C16.1279 9.36589 15.4245 10.2207 14.5223 10.8223C13.6199 11.4239 12.5582 11.7441 11.4725 11.7441C10.0173 11.7427 8.62218 11.1666 7.59363 10.1406C6.56514 9.11462 5.98687 7.72371 5.98523 6.27344L5.98914 6.07129C6.02647 5.06013 6.3441 4.07726 6.90906 3.2334C7.51165 2.33336 8.36915 1.63137 9.37195 1.2168Z" stroke="#0E1D3F" stroke-width="1.6"/>
<path d="M7.45605 15.8534C9.42313 15.0555 11.5845 14.8605 13.6631 15.2938C15.6118 15.7001 17.4051 16.641 18.8428 18.0067L19.125 18.285C20.2903 19.4798 21.1553 20.9325 21.6504 22.5243L21.6533 22.5321C21.9851 23.5595 22.1524 24.6334 22.1484 25.7128V25.7157C22.1484 25.7939 22.1175 25.8698 22.0615 25.9257C22.0055 25.9816 21.9287 26.0134 21.8486 26.0135H1.10059C1.02059 26.0135 0.943798 25.9814 0.887695 25.9257C0.831663 25.8698 0.799855 25.794 0.799805 25.7157L0.807617 25.3192C0.882401 23.3408 1.50876 21.4193 2.62012 19.7723C3.80556 18.0156 5.48919 16.6513 7.45605 15.8534Z" stroke="#0E1D3F" stroke-width="1.6"/>
<path d="M24.7525 13.0939C27.3347 13.0939 29.428 11.0054 29.428 8.42916C29.428 5.85289 27.3347 3.7644 24.7525 3.7644C22.1703 3.7644 20.0771 5.85289 20.0771 8.42916C20.0771 11.0054 22.1703 13.0939 24.7525 13.0939Z" fill="#6E42D3"/>
<path d="M24.7511 14.3788C23.2765 14.3843 21.8304 14.785 20.5641 15.5389C20.8028 15.7519 21.0437 15.9615 21.2693 16.192C22.7672 17.7281 23.88 19.5958 24.5168 21.6426C24.7349 22.3165 24.8957 23.0075 24.9975 23.7083H31.9018C32.1936 23.7083 32.4734 23.5927 32.6797 23.3868C32.886 23.181 33.002 22.9018 33.002 22.6107C32.9996 20.4282 32.1296 18.3357 30.5828 16.7924C29.0359 15.2491 26.9387 14.3811 24.7511 14.3788Z" fill="#6E42D3"/>
</svg>
