<svg width="28" height="28" viewBox="0 0 28 28" fill="none" xmlns="http://www.w3.org/2000/svg">
<g clip-path="url(#clip0_1_246)">
<path d="M14 4.66667C12.7132 4.66667 11.6667 3.62017 11.6667 2.33333C11.6667 1.0465 12.7132 0 14 0C15.2869 0 16.3334 1.0465 16.3334 2.33333C16.3334 3.62017 15.2869 4.66667 14 4.66667Z" fill="#6E42D3"/>
<path d="M23.3333 22.1667C22.0465 22.1667 21 21.1202 21 19.8333C21 18.5465 22.0465 17.5 23.3333 17.5C24.6202 17.5 25.6667 18.5465 25.6667 19.8333C25.6667 21.1202 24.6202 22.1667 23.3333 22.1667Z" fill="#0E1D3F"/>
<path d="M4.66665 22.1667C3.37981 22.1667 2.33331 21.1202 2.33331 19.8333C2.33331 18.5465 3.37981 17.5 4.66665 17.5C5.95348 17.5 6.99998 18.5465 6.99998 19.8333C6.99998 21.1202 5.95348 22.1667 4.66665 22.1667Z" fill="#0E1D3F"/>
<path d="M18.6666 9.04171C18.6666 7.27187 17.2281 5.83337 15.4583 5.83337H12.5416C10.7718 5.83337 9.33331 7.27187 9.33331 9.04171V9.62504C9.33331 10.108 9.72531 10.5 10.2083 10.5H17.7916C18.2746 10.5 18.6666 10.108 18.6666 9.62504V9.04171Z" fill="#6E42D3"/>
<path d="M24.7917 23.3334H21.875C20.1052 23.3334 18.6667 24.7719 18.6667 26.5417V27.125C18.6667 27.608 19.0587 28 19.5417 28H27.125C27.608 28 28 27.608 28 27.125V26.5417C28 24.7719 26.5615 23.3334 24.7917 23.3334Z" fill="#0E1D3F"/>
<path d="M6.125 23.3334H3.20833C1.4385 23.3334 0 24.7719 0 26.5417V27.125C0 27.608 0.392 28 0.875 28H8.45833C8.94133 28 9.33333 27.608 9.33333 27.125V26.5417C9.33333 24.7719 7.89483 23.3334 6.125 23.3334Z" fill="#0E1D3F"/>
<path d="M10.209 19.8333C9.93136 19.8333 9.65836 19.7015 9.48919 19.4565C9.21386 19.0598 9.31303 18.5138 9.70969 18.2396L13.1245 15.876V12.5416C13.1245 12.0586 13.5165 11.6666 13.9995 11.6666C14.4825 11.6666 14.8745 12.0586 14.8745 12.5416V16.3333C14.8745 16.6203 14.7334 16.8898 14.4977 17.0531L10.706 19.6781C10.5544 19.7831 10.3794 19.8333 10.209 19.8333Z" fill="#0E1D3F"/>
<path d="M17.7909 19.8332C17.6205 19.8332 17.4455 19.7831 17.2939 19.6781L13.5022 17.0531C13.1044 16.7777 13.0052 16.2329 13.2817 15.8362C13.5559 15.4407 14.0995 15.3369 14.4985 15.6146L18.2902 18.2396C18.688 18.5149 18.7872 19.0597 18.5107 19.4564C18.3415 19.7014 18.0685 19.8332 17.7909 19.8332Z" fill="#0E1D3F"/>
</g>
<defs>
<clipPath id="clip0_1_246">
<rect width="28" height="28" fill="white"/>
</clipPath>
</defs>
</svg>
