<svg width="27" height="27" viewBox="0 0 27 27" fill="none" xmlns="http://www.w3.org/2000/svg">
<path d="M23.8501 14.1334H12.3668C11.6639 14.1334 10.9899 14.4126 10.4929 14.9096C9.99596 15.4066 9.71677 16.0806 9.71677 16.7834V23.8501C9.71677 24.5529 9.99596 25.227 10.4929 25.7239C10.9899 26.2209 11.6639 26.5001 12.3668 26.5001H23.8501C24.5529 26.5001 25.227 26.2209 25.7239 25.7239C26.2209 25.227 26.5001 24.5529 26.5001 23.8501V16.7834C26.5001 16.0806 26.2209 15.4066 25.7239 14.9096C25.227 14.4126 24.5529 14.1334 23.8501 14.1334ZM24.7334 23.8501C24.7334 24.0844 24.6404 24.309 24.4747 24.4747C24.3091 24.6404 24.0844 24.7334 23.8501 24.7334H12.3668C12.1325 24.7334 11.9078 24.6404 11.7422 24.4747C11.5765 24.309 11.4834 24.0844 11.4834 23.8501V16.7834C11.4834 16.5491 11.5765 16.3245 11.7422 16.1588C11.9078 15.9932 12.1325 15.9001 12.3668 15.9001H23.8501C24.0844 15.9001 24.3091 15.9932 24.4747 16.1588C24.6404 16.3245 24.7334 16.5491 24.7334 16.7834V23.8501Z" fill="#0E1D3F" stroke="white" stroke-width="0.4"/>
<path d="M21.4991 17.8881L18.6901 20.3791C18.5289 20.5207 18.3217 20.5988 18.1071 20.5988C17.8926 20.5988 17.6853 20.5207 17.5241 20.3791L14.7151 17.8881C14.5379 17.7453 14.3123 17.6765 14.0856 17.6959C13.8588 17.7154 13.6483 17.8216 13.4979 17.9925C13.3475 18.1634 13.2689 18.3857 13.2785 18.6131C13.288 18.8405 13.385 19.0554 13.5491 19.2131L16.3493 21.7041C16.8352 22.1387 17.4641 22.3789 18.116 22.3789C18.7678 22.3789 19.3968 22.1387 19.8826 21.7041L22.6828 19.2131C22.7757 19.1383 22.8524 19.0455 22.9085 18.9402C22.9645 18.835 22.9986 18.7195 23.0088 18.6007C23.019 18.4818 23.005 18.3622 22.9677 18.2489C22.9305 18.1357 22.8706 18.0311 22.7918 17.9416C22.7131 17.8521 22.617 17.7795 22.5094 17.7281C22.4018 17.6767 22.2849 17.6476 22.1657 17.6426C22.0466 17.6376 21.9277 17.6568 21.8162 17.699C21.7046 17.7412 21.6028 17.8055 21.5168 17.8881H21.4991Z" fill="#0E1D3F" stroke="white" stroke-width="0.4"/>
<path d="M19.4334 7.06672H21.2001C21.4344 7.06672 21.659 7.15978 21.8247 7.32544C21.9903 7.4911 22.0834 7.71577 22.0834 7.95005V11.4834C22.0834 11.7177 22.1765 11.9423 22.3421 12.108C22.5078 12.2737 22.7325 12.3667 22.9667 12.3667C23.201 12.3667 23.4257 12.2737 23.5914 12.108C23.757 11.9423 23.8501 11.7177 23.8501 11.4834V7.95005C23.8501 7.24723 23.5709 6.57319 23.0739 6.07622C22.5769 5.57924 21.9029 5.30005 21.2001 5.30005H19.4334C19.1991 5.30005 18.9745 5.39311 18.8088 5.55877C18.6431 5.72443 18.5501 5.94911 18.5501 6.18338C18.5501 6.41766 18.6431 6.64234 18.8088 6.80799C18.9745 6.97365 19.1991 7.06672 19.4334 7.06672Z" fill="#0E1D3F" stroke="white" stroke-width="0.4"/>
<path d="M7.06675 19.4334H5.30009C5.06581 19.4334 4.84113 19.3404 4.67547 19.1747C4.50982 19.009 4.41675 18.7844 4.41675 18.5501V15.0168C4.41675 14.7825 4.32369 14.5578 4.15803 14.3921C3.99237 14.2265 3.76769 14.1334 3.53342 14.1334C3.29914 14.1334 3.07447 14.2265 2.90881 14.3921C2.74315 14.5578 2.65009 14.7825 2.65009 15.0168V18.5501C2.65009 19.2529 2.92928 19.927 3.42625 20.4239C3.92322 20.9209 4.59726 21.2001 5.30009 21.2001H7.06675C7.30103 21.2001 7.52571 21.107 7.69136 20.9414C7.85702 20.7757 7.95009 20.551 7.95009 20.3168C7.95009 20.0825 7.85702 19.8578 7.69136 19.6921C7.52571 19.5265 7.30103 19.4334 7.06675 19.4334Z" fill="#0E1D3F" stroke="white" stroke-width="0.4"/>
<path d="M14.1333 12.3667C14.8362 12.3667 15.5102 12.0875 16.0072 11.5905C16.5041 11.0935 16.7833 10.4195 16.7833 9.71667V2.65C16.7833 1.94718 16.5041 1.27314 16.0072 0.776167C15.5102 0.279196 14.8362 0 14.1333 0H2.65C1.94718 0 1.27314 0.279196 0.776167 0.776167C0.279196 1.27314 0 1.94718 0 2.65V9.71667C0 10.4195 0.279196 11.0935 0.776167 11.5905C1.27314 12.0875 1.94718 12.3667 2.65 12.3667H14.1333ZM4.99967 3.75417L7.80867 6.24517C7.96986 6.38678 8.1771 6.46488 8.39167 6.46488C8.60624 6.46488 8.81347 6.38678 8.97467 6.24517L11.7837 3.75417C11.9595 3.59976 12.1894 3.52141 12.4229 3.53631C12.6564 3.55122 12.8744 3.65816 13.0292 3.83367C13.1836 4.00947 13.2619 4.23935 13.247 4.47286C13.2321 4.70637 13.1252 4.92442 12.9497 5.07917L10.1495 7.57017C9.66365 8.00473 9.03467 8.24497 8.38283 8.24497C7.73099 8.24497 7.10202 8.00473 6.61617 7.57017L3.83367 5.07917C3.65816 4.92442 3.55122 4.70637 3.53631 4.47286C3.52141 4.23935 3.59976 4.00947 3.75417 3.83367C3.90891 3.65816 4.12697 3.55122 4.36047 3.53631C4.59398 3.52141 4.82386 3.59976 4.99967 3.75417Z" fill="#6E42D3"/>
</svg>
