<svg width="27" height="26" viewBox="0 0 27 26" fill="none" xmlns="http://www.w3.org/2000/svg">
<g clip-path="url(#clip0_1_233)">
<path d="M23.7506 0.101562H2.24979C1.06659 0.101562 0.101746 1.06641 0.101746 2.24961V23.7453C0.101746 24.9336 1.06659 25.8984 2.24979 25.8984H23.7455C24.9287 25.8984 25.8935 24.9336 25.8935 23.7504V2.24961C25.8986 1.06641 24.9338 0.101562 23.7506 0.101562ZM2.24979 1.53359H23.7455C24.1416 1.53359 24.4615 1.85352 24.4615 2.24961V6.04297H1.53378V2.24961C1.53378 1.85859 1.85878 1.53359 2.24979 1.53359ZM23.7506 24.4664H2.24979C1.8537 24.4664 1.53378 24.1465 1.53378 23.7504V7.48008H24.4666V23.7504C24.4666 24.1414 24.1416 24.4664 23.7506 24.4664Z" fill="#0E1D3F"/>
<path d="M3.56501 4.54495H4.9158C5.31189 4.54495 5.63181 4.22502 5.63181 3.82893C5.63181 3.43284 5.31189 3.11292 4.9158 3.11292H3.56501C3.16892 3.11292 2.849 3.43284 2.849 3.82893C2.849 4.22502 3.16892 4.54495 3.56501 4.54495Z" fill="#0E1D3F" stroke="#0E1D3F" stroke-width="0.1"/>
<path d="M8.16578 4.54495H9.51656C9.91266 4.54495 10.2326 4.22502 10.2326 3.82893C10.2326 3.43284 9.91266 3.11292 9.51656 3.11292H8.16578C7.76969 3.11292 7.44977 3.43284 7.44977 3.82893C7.44977 4.22502 7.76969 4.54495 8.16578 4.54495Z" fill="#0E1D3F" stroke="#0E1D3F" stroke-width="0.1"/>
<path d="M22.4303 9.37927H15.1787C14.7826 9.37927 14.4627 9.69919 14.4627 10.0953C14.4627 10.4914 14.7826 10.8113 15.1787 10.8113H22.4303C22.8264 10.8113 23.1463 10.4914 23.1463 10.0953C23.1463 9.70427 22.8264 9.37927 22.4303 9.37927Z" fill="#0E1D3F"/>
<path d="M22.4303 13.198H15.1787C14.7826 13.198 14.4627 13.5179 14.4627 13.914C14.4627 14.3101 14.7826 14.63 15.1787 14.63H22.4303C22.8264 14.63 23.1463 14.3101 23.1463 13.914C23.1463 13.5179 22.8264 13.198 22.4303 13.198Z" fill="#0E1D3F"/>
<path d="M22.4303 17.0117H15.1787C14.7826 17.0117 14.4627 17.3316 14.4627 17.7277C14.4627 18.1238 14.7826 18.4438 15.1787 18.4438H22.4303C22.8264 18.4438 23.1463 18.1238 23.1463 17.7277C23.1463 17.3367 22.8264 17.0117 22.4303 17.0117Z" fill="#0E1D3F"/>
<path d="M22.4303 20.8304H15.1787C14.7826 20.8304 14.4627 21.1504 14.4627 21.5465C14.4627 21.9426 14.7826 22.2625 15.1787 22.2625H22.4303C22.8264 22.2625 23.1463 21.9426 23.1463 21.5465C23.1463 21.1504 22.8264 20.8304 22.4303 20.8304Z" fill="#0E1D3F"/>
</g>
<rect x="3.8252" y="9" width="9" height="14" rx="2" fill="#6E42D3"/>
<defs>
<clipPath id="clip0_1_233">
<rect width="26" height="26" fill="white"/>
</clipPath>
</defs>
</svg>
