<svg width="30" height="26" viewBox="0 0 30 26" fill="none" xmlns="http://www.w3.org/2000/svg">
<path d="M28.983 7.89589H25.9086L19.215 0.336596C18.8179 -0.111931 18.1741 -0.112275 17.7769 0.336252C17.3797 0.784435 17.3796 1.51135 17.7766 1.95977L23.033 7.89589H18.334V4.94103C18.334 4.3071 17.8787 3.79302 17.317 3.79302H12.6834C12.1218 3.79302 11.6664 4.3071 11.6664 4.94103V7.89578H6.96753L12.2239 1.95965C12.6209 1.51135 12.6208 0.784435 12.2236 0.336137C11.8266 -0.112046 11.1826 -0.11216 10.7855 0.336482L4.0918 7.89578H1.01695C0.455288 7.89578 0 8.40986 0 9.04379C0 9.67772 0.455288 10.1918 1.01695 10.1918H2.12959V21.375C2.12959 23.9253 3.96702 26 6.22566 26H23.7745C26.033 26 27.8704 23.9253 27.8704 21.375V10.1918H28.983C29.5446 10.1918 30 9.67772 30 9.04379C30 8.40986 29.5446 7.89589 28.983 7.89589ZM13.7002 14.1342V6.08904H16.3V14.1341C16.3 14.7681 16.7553 15.2821 17.3169 15.2821H18.5654L15.0001 19.173L11.4347 15.2821H12.6832C13.2448 15.2822 13.7002 14.7681 13.7002 14.1342ZM25.8366 21.3751C25.8366 22.6593 24.9116 23.7041 23.7746 23.7041H6.22576C5.08861 23.7041 4.16359 22.6593 4.16359 21.3751V10.1919H11.6663V12.9862H8.91956C8.50515 12.9862 8.13214 13.2702 7.97675 13.7039C7.82136 14.1376 7.91471 14.6344 8.21268 14.9596L14.2932 21.5952C14.4903 21.8103 14.7452 21.9179 15 21.9179C15.2548 21.9179 15.5098 21.8105 15.7068 21.5952L21.7873 14.9596C22.0854 14.6345 22.1787 14.1377 22.0233 13.7039C21.868 13.2702 21.4949 12.9862 21.0805 12.9862H18.3338V10.1919H25.8365L25.8366 21.3751Z" fill="#6E42D3"/>
</svg>
