<svg width="40" height="40" viewBox="0 0 40 40" fill="none" xmlns="http://www.w3.org/2000/svg">
<g clip-path="url(#clip0_4994_246)">
<path d="M20 0.5C30.7696 0.5 39.5 9.23045 39.5 20C39.5 30.7696 30.7696 39.5 20 39.5C9.23045 39.5 0.5 30.7696 0.5 20C0.5 9.23045 9.23045 0.5 20 0.5Z" fill="white" stroke="#E4E1EE"/>
<g clip-path="url(#clip1_4994_246)">
<path d="M27.1809 9H12.8114C10.7099 9 9.00391 10.706 9.00391 12.8075V27.1769C9.00391 29.2785 10.7099 30.9845 12.8114 30.9845H14.4167H19.3564V27.8361C19.3564 24.804 18.9842 22.4699 16.7276 21.803V19.3215C20.3955 19.6472 22.2179 22.3768 22.2179 26.8668V31H25.2034H27.1886C29.2901 31 30.9961 29.294 30.9961 27.1925V12.8075C30.9884 10.706 29.2824 9 27.1809 9ZM20.1086 16.9408C18.9454 16.9408 17.9993 15.9947 17.9993 14.8315C17.9993 13.6683 18.9454 12.7222 20.1086 12.7222C21.2718 12.7222 22.2101 13.6683 22.2101 14.8393C22.2101 16.0025 21.2718 16.9408 20.1086 16.9408Z" fill="#2F8480"/>
</g>
</g>
<defs>
<clipPath id="clip0_4994_246">
<rect width="40" height="40" fill="white"/>
</clipPath>
<clipPath id="clip1_4994_246">
<rect width="22" height="22" fill="white" transform="translate(9 9)"/>
</clipPath>
</defs>
</svg>
