<svg width="40" height="40" viewBox="0 0 40 40" fill="none" xmlns="http://www.w3.org/2000/svg">
<circle cx="20" cy="20" r="19.5" fill="white" stroke="#E4E1EE"/>
<path fill-rule="evenodd" clip-rule="evenodd" d="M13.6316 9H31V26.3684C31 28.9264 28.9264 31 26.3684 31H9V13.6316C9 11.0736 11.0736 9 13.6316 9Z" fill="#E55B10"/>
<path fill-rule="evenodd" clip-rule="evenodd" d="M19.1315 18.5526L19.1315 25.5C19.1315 25.9796 18.7427 26.3684 18.2631 26.3684L17.6841 26.3684C17.2045 26.3684 16.8157 25.9796 16.8157 25.5L16.8157 17.3947C16.8157 17.0807 16.9823 16.8057 17.232 16.6531C17.3845 16.4035 17.6596 16.2368 17.9736 16.2368L26.0788 16.2368C26.5585 16.2368 26.9473 16.6256 26.9473 17.1052V17.6842C26.9473 18.1638 26.5585 18.5526 26.0788 18.5526L19.1315 18.5526Z" fill="white"/>
<path fill-rule="evenodd" clip-rule="evenodd" d="M21.4471 21.158V14.2106C21.4471 13.731 21.8359 13.3422 22.3156 13.3422H22.8945C23.3741 13.3422 23.7629 13.731 23.7629 14.2106V22.3159C23.7629 22.6298 23.5963 22.9049 23.3466 23.0575C23.1941 23.3071 22.919 23.4738 22.605 23.4738H14.4998C14.0202 23.4738 13.6313 23.0849 13.6313 22.6053V22.0264C13.6313 21.5468 14.0202 21.158 14.4998 21.158H21.4471Z" fill="white"/>
</svg>
