<svg width="40" height="40" viewBox="0 0 40 40" fill="none" xmlns="http://www.w3.org/2000/svg">
<circle cx="20" cy="20" r="19.5" fill="white" stroke="#E4E1EE"/>
<path d="M20.0281 26.9473C24.7167 26.9473 28.3405 23.5541 28.3405 19.3684C28.3405 15.447 24.936 13.0527 22.681 13.0527C19.541 13.0527 17.024 15.1636 16.6654 18.2972C16.599 18.8775 16.119 19.3641 15.5099 19.36C14.4974 19.353 13.0252 19.3447 12.0933 19.3479C11.6921 19.3492 11.3605 19.0373 11.3803 18.6532C11.5208 15.9354 12.4695 13.3942 14.2784 11.4422C16.2884 9.27319 19.2156 8 22.681 8C28.5034 8 34 13.068 34 19.3684C34 26.3446 27.9662 32 20.152 32C14.5793 32 8.96657 28.5113 7.00693 23.6338C6.99988 23.6157 6.99817 23.5961 7.00198 23.5772C7.02824 23.4329 7.07998 23.301 7.13094 23.1713C7.20507 22.9825 7.27765 22.7979 7.26715 22.5853L7.23318 21.9059C7.22537 21.7415 7.26885 21.5785 7.35806 21.4379C7.44728 21.2973 7.57817 21.1854 7.73402 21.1164L8.01725 20.9901C8.17594 20.9197 8.31471 20.8139 8.42193 20.6814C8.52915 20.549 8.60169 20.3938 8.63345 20.2289C8.72843 19.7307 9.18495 19.3684 9.71791 19.3684C10.5503 19.3684 11.274 19.8987 11.5458 20.6524C12.8544 24.2806 14.9346 26.9473 20.0281 26.9473Z" fill="#FB6970"/>
</svg>
