<svg width="40" height="40" viewBox="0 0 40 40" fill="none" xmlns="http://www.w3.org/2000/svg">
<g clip-path="url(#clip0_4994_172)">
<path d="M20 40C31.0457 40 40 31.0457 40 20C40 8.9543 31.0457 0 20 0C8.9543 0 0 8.9543 0 20C0 31.0457 8.9543 40 20 40Z" fill="#FF7A59"/>
<path fill-rule="evenodd" clip-rule="evenodd" d="M24.3671 24.4117C22.8738 24.4117 21.6625 23.2137 21.6625 21.7356C21.6625 20.2574 22.8734 19.059 24.3671 19.059C25.8609 19.059 27.0726 20.257 27.0726 21.7356C27.0726 23.2141 25.8617 24.4117 24.3671 24.4117ZM25.1773 16.5828V14.2C25.4941 14.0549 25.7629 13.8224 25.952 13.5297C26.1411 13.2371 26.2427 12.8965 26.2449 12.5481V12.493C26.2449 11.4859 25.4121 10.6625 24.3953 10.6625H24.3394C23.3238 10.6625 22.4898 11.4863 22.4898 12.493V12.5481C22.492 12.8965 22.5937 13.237 22.7828 13.5296C22.9719 13.8223 23.2406 14.0548 23.5574 14.2V16.5828C22.6453 16.7204 21.7852 17.0947 21.0628 17.6684L14.4574 12.5836C14.5036 12.4163 14.5284 12.2438 14.5312 12.0703C14.5312 10.9293 13.598 10.0031 12.4453 10C11.2925 9.99688 10.3574 10.9215 10.3562 12.0629C10.355 13.2043 11.2878 14.1285 12.4406 14.1305C12.8016 14.1289 13.1561 14.0335 13.4691 13.8535L19.9683 18.8574C19.3836 19.7283 19.0782 20.7567 19.0926 21.8056C19.1071 22.8545 19.4407 23.874 20.0492 24.7285L18.0718 26.6856C17.8379 26.6122 17.5908 26.5905 17.3477 26.6218C17.1045 26.6532 16.8711 26.7369 16.6634 26.8671C16.4557 26.9974 16.2787 27.1711 16.1446 27.3764C16.0105 27.5816 15.9225 27.8135 15.8867 28.056C15.8508 28.2986 15.868 28.546 15.937 28.7812C16.0059 29.0165 16.1251 29.234 16.2862 29.4188C16.4474 29.6036 16.6467 29.7512 16.8704 29.8515C17.094 29.9519 17.3368 30.0025 17.582 30C18.5289 30 19.2968 29.2399 19.2968 28.3027C19.2951 28.138 19.2688 27.9745 19.2187 27.8176L21.1718 25.8832C22.0912 26.5801 23.2135 26.957 24.3671 26.9563C27.2816 26.9563 29.6429 24.6191 29.6429 21.7356C29.6429 19.1254 27.7046 16.9699 25.1769 16.5828" fill="white"/>
</g>
<defs>
<clipPath id="clip0_4994_172">
<rect width="40" height="40" fill="white"/>
</clipPath>
</defs>
</svg>
