<svg width="40" height="40" viewBox="0 0 40 40" fill="none" xmlns="http://www.w3.org/2000/svg">
<circle cx="20" cy="20" r="19.5" fill="white" stroke="#E4E1EE"/>
<g clip-path="url(#clip0_5004_136)">
<path d="M33 27.0118C33 27.5765 32.5135 28 31.9521 28H9.0479C8.48653 28.0353 8 27.5765 8 27.0118V13.9882C8 13.4588 8.48653 13 9.0479 13H31.9147C32.5135 13 32.9626 13.4588 32.9626 13.9882L33 27.0118Z" fill="#00BAFF"/>
<path d="M32.7755 13.3882C29.8189 17.6941 25.2157 21.6823 20.4627 21.5764C18.7037 21.5411 16.7201 21.0823 15.036 19.7764C13.7636 18.8235 12.5285 17.3058 12.042 15.1529H11.5555C10.7695 15.1529 10.3204 15.7882 10.3953 16.3882C10.4327 16.5294 10.4701 16.6705 10.4701 16.847C10.8444 18.9294 12.1543 21.3294 14.3624 22.847C16.0839 24.047 18.1797 24.8235 20.5001 24.8235C24.6543 24.8235 29.1079 22.3176 33.0001 15.8941V13.9882C33.0001 13.7764 32.9252 13.5294 32.7755 13.3882Z" fill="white"/>
</g>
<defs>
<clipPath id="clip0_5004_136">
<rect width="25" height="15" fill="white" transform="translate(8 13)"/>
</clipPath>
</defs>
</svg>
