<svg width="40" height="40" viewBox="0 0 40 40" fill="none" xmlns="http://www.w3.org/2000/svg">
<circle cx="20" cy="20" r="20" fill="#004CFF"/>
<path d="M26.4296 18.603C26.1148 18.3332 13.2977 9.38373 12.7131 9.02395L12.5332 8.88904V11.0927C12.5332 11.8122 12.893 12.0371 13.3427 12.3969L13.4326 12.4418C14.0623 12.8916 23.1916 19.2326 24.4058 20.0871C23.1916 20.9415 13.9273 27.3726 13.3427 27.7323C12.6232 28.182 12.5782 28.4969 12.5782 29.1265V31.2401C12.5782 31.2401 26.2047 21.751 26.4745 21.5262C27.1041 21.0765 27.2391 20.4918 27.2391 20.1321V19.8622C27.2391 19.4125 26.9692 18.9628 26.4296 18.603Z" fill="white"/>
<path d="M18.4246 21.0767C18.7844 21.0767 19.1442 20.9418 19.504 20.672C19.9537 20.3572 20.3584 20.0873 20.3584 20.0873L20.4934 19.9974L20.3584 19.9075C20.3135 19.8625 14.3322 15.7251 13.7026 15.3203C13.4327 15.0954 13.073 15.0505 12.8481 15.1854C12.6232 15.3203 12.4434 15.5452 12.4434 15.9049V17.2991L12.4883 17.344C12.5333 17.389 16.6258 20.2223 17.4353 20.7619C17.795 20.9868 18.1098 21.0767 18.4246 21.0767Z" fill="white"/>
</svg>
