<svg width="40" height="40" viewBox="0 0 40 40" fill="none" xmlns="http://www.w3.org/2000/svg">
<circle cx="20" cy="20" r="20" fill="#0092FF"/>
<path fill-rule="evenodd" clip-rule="evenodd" d="M28.5721 24.878C27.9842 25.8983 27.024 26.6513 25.893 26.9792C26.0547 26.4242 26.1372 25.8493 26.1382 25.2713C26.1382 22.3928 24.1544 19.9785 21.4916 19.3211C22.0436 18.7812 22.7252 18.3924 23.4708 18.1921C24.0459 18.0355 24.6465 17.9952 25.2373 18.0734C25.8282 18.1516 26.3976 18.3468 26.9121 18.6477C29.0778 19.9054 29.8224 22.7001 28.5721 24.878M20.0401 29.8319C18.8556 29.8319 17.7288 29.3587 16.8928 28.5507C17.4511 28.4136 17.9871 28.1975 18.4844 27.9091C20.9624 26.4703 22.0494 23.5368 21.2857 20.8895C23.1818 21.4358 24.5752 23.1913 24.5752 25.2713C24.5752 27.7856 22.5405 29.8319 20.0401 29.8319ZM11.5077 24.878C10.9155 23.8463 10.7622 22.6308 11.039 21.5002C11.4361 21.9154 11.8896 22.2729 12.3861 22.5621C13.3088 23.0996 14.3575 23.3827 15.4253 23.3826C16.2493 23.3819 17.0645 23.2144 17.822 22.8901C18.5794 22.5659 19.2634 22.0917 19.8327 21.4961C20.3083 23.4196 19.4929 25.5081 17.7031 26.5475C17.017 26.9471 16.2372 27.1576 15.4432 27.1575C14.6445 27.1578 13.8599 26.9472 13.1688 26.5469C12.4777 26.1466 11.9046 25.5709 11.5075 24.878M11.5075 14.9702C12.0955 13.9499 13.0557 13.1968 14.1868 12.869C14.0248 13.4241 13.9421 13.9992 13.9412 14.5774C13.9412 17.4543 15.924 19.8679 18.5856 20.5264C17.1669 21.9049 14.9585 22.2404 13.1677 21.2006C12.1184 20.591 11.3682 19.6078 11.0546 18.4309C10.8988 17.8526 10.8586 17.2493 10.9363 16.6555C11.014 16.0616 11.2081 15.4889 11.5075 14.9702M20.0401 10.0163C21.2252 10.0163 22.3508 10.4891 23.1861 11.2964C22.6283 11.4347 22.0927 11.6511 21.5954 11.9391C20.1844 12.7586 19.1752 14.0809 18.754 15.6635C18.4652 16.7447 18.4785 17.8844 18.7924 18.9585C16.8971 18.4117 15.5048 16.6564 15.5048 14.5774C15.5048 12.0624 17.5391 10.0163 20.0401 10.0163M28.5721 14.9702C29.165 16.0033 29.3185 17.2202 29.0399 18.3521C28.6438 17.935 28.1906 17.5761 27.6939 17.2861C26.2829 16.4672 24.6396 16.2496 23.0658 16.6736C21.9886 16.9638 21.0125 17.5462 20.2456 18.3564C20.0576 17.6052 20.0639 16.8184 20.2641 16.0704C20.5772 14.8937 21.3277 13.91 22.377 13.3007C23.4261 12.6918 24.6482 12.53 25.8183 12.8451C26.9884 13.1605 27.9662 13.9152 28.5721 14.9702M29.926 14.1846C29.1115 12.7656 27.7964 11.7508 26.2226 11.3269C25.8506 11.2271 25.47 11.1627 25.0859 11.1345C23.9571 9.46523 22.0623 8.44434 20.0401 8.44434C17.9457 8.44434 16.0952 9.51196 14.9966 11.1338C12.9934 11.2819 11.1654 12.422 10.154 14.1841C9.33902 15.6028 9.12296 17.2558 9.54424 18.8384C9.64447 19.2121 9.77939 19.5757 9.94722 19.9243C9.0742 21.7424 9.14238 23.9029 10.1536 25.6643C11.2007 27.488 13.0447 28.5647 14.9903 28.711C16.1191 30.3816 18.0178 31.4043 20.0399 31.4043C22.1341 31.4043 23.9847 30.3365 25.083 28.7144C27.0862 28.5663 28.9142 27.4266 29.9258 25.6643C30.9731 23.8402 30.9785 21.6948 30.131 19.9273C31.0052 18.1083 30.9374 15.9469 29.9258 14.1846" fill="white"/>
</svg>
