<svg width="40" height="40" viewBox="0 0 40 40" fill="none" xmlns="http://www.w3.org/2000/svg">
<circle cx="20" cy="20" r="19.5" fill="white" stroke="#E4E1EE"/>
<path d="M21.4433 8.03259C20.9027 8.03259 20.4007 8.30289 20.0532 8.68903C17.6591 11.7395 16.2304 15.292 15.6126 18.8831C15.0334 21.9722 15.2651 25.9494 16.3463 29.6564C16.5393 30.39 16.9255 30.9692 19.8987 30.9692C27.969 30.9692 31.5987 27.8029 31.5987 19.5395C31.5987 11.392 28.1621 8.03259 21.4433 8.03259ZM21.2116 29.9267C20.7482 30.197 20.0918 30.0039 19.8987 29.5405C18.2383 26.4514 17.6977 22.9375 18.3928 19.4237C19.0878 15.9098 20.7869 12.8207 23.4126 10.4267C23.7987 10.0791 24.4552 10.0791 24.8027 10.5039C25.1888 10.89 25.1502 11.5078 24.7255 11.894C22.4859 13.8633 20.9027 16.6049 20.3621 19.7712C19.7829 22.8603 20.3621 25.988 21.675 28.6524C21.675 28.6524 21.675 28.6524 21.675 28.7296C21.9067 29.0771 21.675 29.6564 21.2116 29.9267ZM27.3126 15.2534C25.6522 16.5663 24.4552 18.3039 24.069 20.3504C23.6829 22.397 24.069 24.4435 25.1116 26.1811C25.1116 26.1811 25.1116 26.1811 25.1116 26.2583C25.3047 26.5286 25.1888 26.9148 24.8413 27.0692C24.4938 27.1851 24.1076 27.1465 23.9146 26.7989C22.7175 24.8682 22.2542 22.5514 22.7175 20.2346C23.1809 17.9177 24.4938 15.9484 26.3472 14.4039C26.3472 14.4039 26.3472 14.4039 26.4245 14.3267C26.6948 14.1336 27.1581 14.1336 27.3512 14.4039C27.6601 14.6356 27.5829 15.0603 27.3126 15.2534ZM11.7512 28.189C11.8284 28.5752 11.3651 28.8455 11.0175 28.5752C9.2413 27.0306 8.19873 24.9455 8.19873 19.4623C8.19873 12.396 10.9789 9.34546 14.7631 8.38012C15.1492 8.26428 15.4195 8.72764 15.2265 8.95933C13.4888 11.8168 12.3304 14.9059 11.7126 18.2267C11.0948 21.5474 11.172 24.9455 11.7512 28.189Z" fill="#246BE8"/>
</svg>
