<svg width="40" height="40" viewBox="0 0 40 40" fill="none" xmlns="http://www.w3.org/2000/svg">
<circle cx="20" cy="20" r="19.5" fill="white" stroke="#E4E1EE"/>
<g clip-path="url(#clip0_4994_194)">
<path d="M22.9999 20.0052C23.0003 20.8706 22.8442 21.7289 22.5391 22.5387C21.729 22.8438 20.8705 23.0001 20.0049 23.0003H19.9948C19.1034 22.9992 18.2493 22.8362 17.4613 22.5391C17.156 21.7292 16.9997 20.8708 17 20.0052V19.9948C16.9996 19.1295 17.1555 18.2714 17.4603 17.4616C18.2704 17.156 19.1291 16.9996 19.9948 17H20.005C20.8707 16.9996 21.7293 17.1559 22.5392 17.4615C22.8443 18.2712 23.0004 19.1294 23 19.9947V20.0052L22.9999 20.0052ZM31.8333 18H24.8287L29.7814 13.0469C29.3927 12.5009 28.959 11.9882 28.485 11.5142V11.5138C28.011 11.0404 27.4985 10.6072 26.9527 10.2186L21.9996 15.1717V8.16706C21.3408 8.05624 20.674 8.00036 20.006 8L19.9936 8C19.3141 8.00038 18.6486 8.05813 18 8.16706V15.1717L13.0469 10.2186C12.5011 10.607 11.9887 11.0406 11.5153 11.5147L11.5127 11.5166C11.0395 11.9899 10.6065 12.5018 10.2181 13.0469L15.1716 18H8.16706C8.16706 18 8 19.3156 8 19.9959V20.0041C8 20.6844 8.05766 21.351 8.16706 22H15.1717L10.2182 26.9531C10.9974 28.0466 11.9534 29.0026 13.0469 29.7818L18 24.8283V31.8333C18.6581 31.9436 19.3241 31.9993 19.9913 32H20.0082C20.6755 31.9994 21.3415 31.9436 21.9995 31.8333V24.8283L26.9531 29.7818C27.4987 29.3931 28.0111 28.9597 28.485 28.4862L28.4862 28.485C28.9595 28.0111 29.3927 27.4986 29.7814 26.9531L24.8279 22H31.8333C31.9423 21.3522 31.9993 20.6875 32 20.0087V19.9913C31.9993 19.3125 31.9423 18.6478 31.8333 18Z" fill="#FF4A00"/>
</g>
<defs>
<clipPath id="clip0_4994_194">
<rect width="24" height="24" fill="white" transform="translate(8 8)"/>
</clipPath>
</defs>
</svg>
