<svg width="40" height="40" viewBox="0 0 40 40" fill="none" xmlns="http://www.w3.org/2000/svg">
<circle cx="20" cy="20" r="20" fill="#1856ED"/>
<path d="M18.9299 31.1115C12.6891 31.1115 8.44531 26.019 8.44531 20.6019C8.44531 15.11 12.764 10.367 18.5305 10.1423C18.7552 10.1423 18.9549 10.3171 18.9549 10.5417V12.2143C18.9549 12.4389 18.7801 12.6137 18.5804 12.6137C14.3366 12.8384 10.9416 16.2833 10.9416 20.6269C10.9416 24.8457 14.2867 28.6401 18.9549 28.6401C23.4982 28.6401 26.7434 25.0205 26.9181 21.0014C26.9181 20.7767 27.0929 20.6269 27.3176 20.6269H28.9901C29.2148 20.6269 29.3895 20.8266 29.3895 21.0513C29.1898 26.3685 24.8961 31.1115 18.9299 31.1115Z" fill="white"/>
<path d="M18.9544 25.5441C16.1586 25.5441 14.0117 23.3223 14.0117 20.6013C14.0117 18.0551 15.9838 15.9332 18.5301 15.7085C18.7547 15.6836 18.9544 15.8833 18.9544 16.1079V17.7805C18.9544 17.9802 18.8047 18.1549 18.605 18.1799C17.3818 18.3546 16.4831 19.4031 16.4831 20.5764C16.4831 21.9244 17.5315 23.0477 18.9544 23.0477C20.1277 23.0477 21.1762 22.1491 21.3509 20.9259C21.3759 20.7262 21.5506 20.5764 21.7503 20.5764H23.4229C23.6475 20.5764 23.8473 20.7761 23.8223 21.0008C23.6226 23.547 21.5257 25.5441 18.9544 25.5441Z" fill="white"/>
<path d="M28.6402 18.5545C28.4405 14.4855 25.1952 11.1154 21.0014 10.9157C20.7767 10.9157 20.627 10.741 20.627 10.5163V8.84375C20.627 8.61908 20.8267 8.44434 21.0513 8.44434C26.4933 8.64404 30.9118 13.0126 31.1365 18.5295C31.1365 18.7542 30.9618 18.9539 30.7371 18.9539H29.0645C28.8399 18.9539 28.6651 18.7791 28.6402 18.5545Z" fill="white"/>
<path d="M21.0763 16.5321C20.8267 16.4822 20.627 16.2825 20.627 16.0828V14.4352C20.627 14.2106 20.8267 14.0108 21.0513 14.0358C23.4728 14.2355 25.3201 16.1827 25.5447 18.5042C25.5697 18.7289 25.37 18.9286 25.1453 18.9286H23.3979C23.2231 18.9286 23.0983 18.8038 23.0734 18.654C22.9485 17.6804 22.1996 16.7318 21.0763 16.5321Z" fill="white"/>
</svg>
