<svg width="40" height="40" viewBox="0 0 40 40" fill="none" xmlns="http://www.w3.org/2000/svg">
<circle cx="20" cy="20" r="20" fill="#21C16C"/>
<path d="M29.0479 10.6667H11.3795C10.0012 10.6667 8.88867 11.7793 8.88867 13.1576V28.9827L12.326 25.5786H29.0645C30.4428 25.5786 31.5553 24.466 31.5553 23.0878V13.1576C31.5387 11.7793 30.4262 10.6667 29.0479 10.6667ZM14.1859 21.8257C14.1859 22.191 13.887 22.4899 13.5216 22.4899C13.1563 22.4899 12.8574 22.191 12.8574 21.8257V14.7683C12.8574 14.403 13.1563 14.1041 13.5216 14.1041C13.887 14.1041 14.1859 14.403 14.1859 14.7683V21.8257ZM17.2745 21.8257C17.2745 22.191 16.9756 22.4899 16.6103 22.4899C16.245 22.4899 15.9461 22.191 15.9461 21.8257V17.1595C15.9461 16.7942 16.245 16.4953 16.6103 16.4953C16.9756 16.4953 17.2745 16.7942 17.2745 17.1595V21.8257ZM17.3575 15.034C17.3575 15.4326 17.042 15.7481 16.6435 15.7481H16.5771C16.1785 15.7481 15.863 15.4326 15.863 15.034V14.9842C15.863 14.5857 16.1785 14.2702 16.5771 14.2702H16.6435C17.042 14.2702 17.3575 14.5857 17.3575 14.9842V15.034ZM22.0403 22.3239C21.7414 22.4733 21.4093 22.5398 21.0606 22.5398C19.9148 22.5398 19.3004 21.9918 19.3004 20.9456V17.7407H18.7026C18.5033 17.7407 18.3373 17.5913 18.3373 17.392V17.3754C18.3373 17.2592 18.4037 17.1429 18.5033 17.0599L19.9812 15.6152C20.0643 15.5322 20.1639 15.4824 20.2801 15.4658C20.4794 15.4658 20.6621 15.6318 20.6621 15.8311V15.8477V16.5451H21.7248C22.0569 16.5451 22.3226 16.8108 22.3226 17.1429C22.3226 17.4751 22.0569 17.7407 21.7248 17.7407H20.6621V20.8626C20.6621 21.3109 20.8945 21.3442 21.21 21.3442C21.3429 21.3442 21.4757 21.3276 21.592 21.2943C21.675 21.2611 21.7746 21.2611 21.8577 21.2445C22.1566 21.2445 22.4056 21.4936 22.4222 21.8091C22.389 22.025 22.2396 22.2409 22.0403 22.3239V22.3239ZM26.1087 21.2943C26.5903 21.3109 27.0718 21.1947 27.5036 20.9788C27.5866 20.929 27.6862 20.9124 27.7693 20.9124C28.1014 20.9124 28.3671 21.1615 28.3671 21.4936V21.5102C28.3505 21.7427 28.2176 21.9586 28.0017 22.0582C27.5368 22.3239 27.0386 22.5564 26.0091 22.5564C24.1492 22.5564 23.0201 21.4106 23.0201 19.5009C23.0201 17.2592 24.5146 16.4455 25.7766 16.4455C27.6696 16.4455 28.5331 17.9566 28.5331 19.3515C28.5497 19.7002 28.2674 19.9991 27.9187 20.0157C27.9021 20.0157 27.8855 20.0157 27.8689 20.0157H24.3817C24.5644 20.846 25.1622 21.2943 26.1087 21.2943V21.2943Z" fill="white"/>
<path d="M25.8099 17.6246C25.0793 17.608 24.4649 18.156 24.3984 18.8867H27.238C27.155 18.156 26.5406 17.608 25.8099 17.6246Z" fill="white"/>
<rect x="11.0859" y="13.9636" width="17.9497" height="9.158" fill="white"/>
<path d="M22.4091 15.4303C21.5251 15.4303 20.8227 15.7815 20.3262 16.4717C19.9872 15.8178 19.309 15.4182 18.5704 15.4303C17.868 15.4061 17.202 15.7088 16.7539 16.2538V16.1327C16.7539 15.7815 16.4633 15.4909 16.1121 15.4909C15.7609 15.4909 15.4824 15.7815 15.4824 16.1327V21.0128C15.4945 21.364 15.7973 21.6425 16.1484 21.6183C16.4754 21.6062 16.7418 21.3398 16.7539 21.0128V17.6342C17.0446 17.162 17.4805 16.6292 18.2676 16.6292C19.0184 16.6292 19.309 16.9924 19.309 17.937V21.0128C19.3212 21.364 19.6239 21.6425 19.9751 21.6183C20.302 21.6062 20.5684 21.3398 20.5805 21.0128V17.6342C20.8712 17.162 21.3071 16.6292 22.0942 16.6292C22.845 16.6292 23.1357 16.9924 23.1357 17.937V21.0128C23.1478 21.364 23.4505 21.6425 23.8017 21.6183C24.1287 21.6062 24.3951 21.3398 24.4072 21.0128V17.7311C24.4314 16.617 23.8017 15.4303 22.4091 15.4303Z" fill="#21C16C"/>
</svg>
