<svg width="24" height="26" viewBox="0 0 24 26" fill="none" xmlns="http://www.w3.org/2000/svg">
<path d="M16.5508 11.1719C16.5508 10.6109 16.0961 10.1562 15.5352 10.1562H5.07422C4.51329 10.1562 4.05859 10.6109 4.05859 11.1719C4.05859 11.7328 4.51329 12.1875 5.07422 12.1875H15.5352C16.0961 12.1875 16.5508 11.7328 16.5508 11.1719Z" fill="#6E42D3"/>
<path d="M5.07422 14.2188C4.51329 14.2188 4.05859 14.6734 4.05859 15.2344C4.05859 15.7953 4.51329 16.25 5.07422 16.25H11.4275C11.9884 16.25 12.4431 15.7953 12.4431 15.2344C12.4431 14.6734 11.9884 14.2188 11.4275 14.2188H5.07422Z" fill="#6E42D3"/>
<path d="M7.45921 23.9688H4.0625C2.94247 23.9688 2.03125 23.0575 2.03125 21.9375V4.0625C2.03125 2.94247 2.94247 2.03125 4.0625 2.03125H16.5491C17.6691 2.03125 18.5803 2.94247 18.5803 4.0625V10.3086C18.5803 10.8695 19.035 11.3242 19.5959 11.3242C20.1569 11.3242 20.6116 10.8695 20.6116 10.3086V4.0625C20.6116 1.82244 18.7891 0 16.5491 0H4.0625C1.82244 0 0 1.82244 0 4.0625V21.9375C0 24.1776 1.82244 26 4.0625 26H7.45921C8.02014 26 8.47483 25.5453 8.47483 24.9844C8.47483 24.4234 8.02014 23.9688 7.45921 23.9688Z" fill="#6E42D3"/>
<path d="M22.4123 14.7051C21.2243 13.5171 19.2914 13.517 18.1042 14.7043L12.5282 20.2678C12.4098 20.386 12.3225 20.5316 12.2738 20.6916L11.0595 24.6894C10.9518 25.0438 11.0456 25.4287 11.3043 25.6938C11.4981 25.8924 11.7613 26.0002 12.0314 26.0002C12.1217 26.0002 12.2129 25.9882 12.3024 25.9633L16.4017 24.8278C16.5704 24.7811 16.7242 24.6916 16.8481 24.5679L22.4124 19.0141C23.6003 17.8261 23.6003 15.8931 22.4123 14.7051ZM15.6021 22.9416L13.5398 23.5129L14.1433 21.5259L17.9057 17.7718L19.3423 19.2085L15.6021 22.9416ZM20.9768 17.5772L20.78 17.7735L19.3436 16.3372L19.5398 16.1415C19.9358 15.7455 20.5801 15.7455 20.9761 16.1415C21.3721 16.5375 21.3721 17.1818 20.9768 17.5772Z" fill="#6E42D3"/>
<path d="M15.5352 6.09375H5.07422C4.51329 6.09375 4.05859 6.54845 4.05859 7.10938C4.05859 7.6703 4.51329 8.125 5.07422 8.125H15.5352C16.0961 8.125 16.5508 7.6703 16.5508 7.10938C16.5508 6.54845 16.0961 6.09375 15.5352 6.09375Z" fill="#6E42D3"/>
</svg>
