<svg width="26" height="26" viewBox="0 0 26 26" fill="none" xmlns="http://www.w3.org/2000/svg">
<g clip-path="url(#clip0_1_208)">
<path d="M12.2331 25.9667V15.1506L5.44376 23.5443C7.43636 24.9844 9.77398 25.823 12.2331 25.9667Z" fill="#6E42D3"/>
<path d="M13.7567 13.7605V25.9667C16.9193 25.782 19.8825 24.4493 22.1696 22.1656C24.4571 19.8813 25.7929 16.921 25.978 13.7605H13.7567Z" fill="#6E42D3"/>
<path d="M22.4012 7.35876V12.139H20.699V7.35876H22.4012Z" fill="#0E1D3F" stroke="white" stroke-width="0.2"/>
<path d="M3.82616 3.83343C1.3588 6.29957 0 9.55495 0 12.9998C0 16.4447 1.3588 19.7001 3.82616 22.1663C3.96937 22.3094 4.11547 22.4484 4.2639 22.584L12.2341 12.7305V0.0317383C9.07045 0.217039 6.1102 1.5505 3.82616 3.83343Z" fill="#6E42D3"/>
<path d="M15.5535 5.8468V12.1388H13.8563V5.8468H15.5535Z" fill="#0E1D3F" stroke="white" stroke-width="0.2"/>
<path d="M18.976 2.1842V12.1393H17.2738V2.1842H18.976Z" fill="#0E1D3F" stroke="white" stroke-width="0.2"/>
<path d="M25.899 9.3938V12.1379H24.1217V9.3938H25.899Z" fill="#0E1D3F" stroke="white" stroke-width="0.2"/>
</g>
<defs>
<clipPath id="clip0_1_208">
<rect width="26" height="26" fill="white"/>
</clipPath>
</defs>
</svg>
