<svg width="26" height="26" viewBox="0 0 26 26" fill="none" xmlns="http://www.w3.org/2000/svg">
<path d="M3.55469 0.10022H4.77344C6.67816 0.100284 8.22754 1.65056 8.22754 3.5553V22.4449C8.22754 24.3497 6.67816 25.9 4.77344 25.9H3.55469C1.64991 25.9 0.0996094 24.3497 0.0996094 22.4449V3.5553C0.0996094 1.65052 1.64991 0.10022 3.55469 0.10022ZM3.55469 1.93225C2.65946 1.93225 1.93164 2.66007 1.93164 3.5553V22.4449C1.93164 23.3402 2.65946 24.069 3.55469 24.069H4.77344C5.66861 24.0689 6.39648 23.3401 6.39648 22.4449V3.5553C6.39648 2.66011 5.66861 1.93231 4.77344 1.93225H3.55469Z" fill="#0E1D3F" stroke="white" stroke-width="0.2"/>
<path d="M14.0152 10.6117H22.4449C24.3495 10.6119 25.899 12.1621 25.899 14.0668V17.3676C25.8989 17.873 25.4894 18.2824 24.9839 18.2826C24.4783 18.2826 24.068 17.8732 24.0679 17.3676V14.0668C24.0679 13.1716 23.34 12.4439 22.4449 12.4437H14.0152C13.12 12.4437 12.3922 13.1715 12.3922 14.0668V22.4457C12.3923 23.3408 13.1201 24.0687 14.0152 24.0687H22.4449C23.3399 24.0686 24.0678 23.3407 24.0679 22.4457C24.0679 21.94 24.4783 21.5297 24.9839 21.5297C25.4895 21.5299 25.899 21.9401 25.899 22.4457C25.8988 24.3502 24.3494 25.8996 22.4449 25.8998H14.0152C12.1105 25.8998 10.5603 24.3503 10.5601 22.4457V14.0668C10.5601 12.162 12.1104 10.6117 14.0152 10.6117Z" fill="#0E1D3F" stroke="white" stroke-width="0.2"/>
<rect x="10.7055" width="15.2945" height="8.41198" rx="4.20599" fill="#6E42D3"/>
</svg>
