<svg width="28" height="28" viewBox="0 0 28 28" fill="none" xmlns="http://www.w3.org/2000/svg">
<path d="M2.28361 13.6585C2.28361 7.00976 7.69264 1.60061 14.3412 1.60061C16.8417 1.60061 19.2263 2.35882 21.2342 3.76607H19.683C19.241 3.76607 18.8827 4.1244 18.8827 4.56638C18.8827 5.00836 19.241 5.36668 19.683 5.36668H23.4332C23.8752 5.36668 24.2335 5.00836 24.2335 4.56638V0.816044C24.2335 0.374062 23.8752 0.0157393 23.4332 0.0157393C22.9913 0.0157393 22.6329 0.374062 22.6329 0.816044V2.80822C20.2627 0.986989 17.3775 0 14.3412 0C10.693 0 7.26315 1.42075 4.6834 4.00046C2.10376 6.58027 0.683044 10.0102 0.683044 13.6585C0.683044 16.0552 1.31639 18.4167 2.51463 20.4877C2.66295 20.7441 2.93174 20.8873 3.20805 20.8873C3.3441 20.8873 3.48196 20.8526 3.60814 20.7796C3.99068 20.5582 4.12134 20.0687 3.90003 19.6861C2.84259 17.8584 2.28361 15.7741 2.28361 13.6585Z" fill="#0E1D3F"/>
<path d="M26.1685 6.82868C25.9471 6.44608 25.4574 6.31547 25.075 6.53683C24.6924 6.7582 24.5618 7.24777 24.7831 7.63037C25.8405 9.45789 26.3995 11.5422 26.3995 13.6578C26.3995 20.3066 20.9905 25.7158 14.3419 25.7158C11.8416 25.7158 9.4574 24.9573 7.44981 23.5503H9.00012C9.44209 23.5503 9.80041 23.192 9.80041 22.75C9.80041 22.308 9.44209 21.9497 9.00012 21.9497H5.24993C4.80796 21.9497 4.44965 22.308 4.44965 22.75V26.5003C4.44965 26.9423 4.80796 27.3006 5.24993 27.3006C5.6919 27.3006 6.05022 26.9423 6.05022 26.5003V24.5062C8.42045 26.328 11.3052 27.3164 14.3419 27.3164C17.9901 27.3164 21.42 25.8956 23.9997 23.3159C26.5793 20.7361 28.0001 17.3062 28.0001 13.6578C28.0001 11.261 27.3667 8.89954 26.1685 6.82868Z" fill="#0E1D3F"/>
<path d="M21.5623 8.19507H7.12001C6.20499 8.19507 5.46332 8.9654 5.46332 9.91565V15.5633C5.46332 16.5136 6.2051 17.2838 7.12001 17.2838H13.9932L17.0394 19.1219L16.431 17.2838H21.5623C22.4773 17.2838 23.219 16.5135 23.219 15.5633V9.91565C23.219 8.96534 22.4772 8.19507 21.5623 8.19507Z" fill="#6E42D3"/>
<path d="M8.43859 16.254C8.43629 16.254 8.43409 16.254 8.43184 16.2539C8.24837 16.2517 8.07758 16.16 7.97439 16.0083C7.81141 15.7686 7.57249 15.216 7.16839 13.0525C6.95179 11.8928 6.78897 10.8007 6.78737 10.7899C6.74177 10.4832 6.95345 10.1977 7.26013 10.1521C7.5666 10.1064 7.8523 10.3181 7.8979 10.6248C7.89946 10.6355 8.05863 11.7026 8.27042 12.8378C8.39277 13.4935 8.49741 13.9826 8.58433 14.3466C9.11366 13.3711 9.75979 12.0592 10.0442 11.4668C10.1484 11.2499 10.379 11.1235 10.6181 11.1525C10.857 11.1816 11.0507 11.3597 11.0998 11.5952C11.1928 12.0399 11.4336 12.9659 11.7758 13.8063C11.902 12.6114 12.1462 11.0949 12.6118 10.1405C12.7477 9.86181 13.0838 9.74609 13.3625 9.88204C13.6411 10.018 13.7568 10.3541 13.6209 10.6327C12.8806 12.1504 12.7697 15.6077 12.7687 15.6425C12.762 15.8665 12.6229 16.065 12.4147 16.1476C12.2064 16.2302 11.969 16.1812 11.8106 16.0228C11.3077 15.5198 10.8492 14.653 10.4478 13.4466C10.4305 13.3944 10.4136 13.3427 10.3972 13.2917C9.9051 14.2711 9.25823 15.512 8.89508 16.0195C8.78953 16.1667 8.61949 16.254 8.43859 16.254Z" fill="white"/>
<path d="M17.1525 11.5166C16.9187 11.0418 16.5172 10.7134 15.9926 10.5675C15.3942 10.4014 14.746 10.6223 14.2584 11.1592C13.6795 11.7951 13.2573 12.9869 13.8076 14.4231C14.1846 15.4074 14.7774 15.588 15.1604 15.588C15.2018 15.588 15.2404 15.5858 15.2762 15.5824C16.2957 15.4857 17.152 14.1367 17.3169 13.2117C17.4355 12.549 17.3801 11.9785 17.1525 11.5166ZM16.2118 13.0143C16.1598 13.3034 15.9792 13.6859 15.7505 13.9885C15.5156 14.3 15.2852 14.4538 15.1705 14.4644C15.1006 14.4711 14.9709 14.3213 14.8562 14.0215C14.6258 13.4208 14.5486 12.5081 15.0889 11.9141C15.2499 11.7369 15.4373 11.6367 15.5984 11.6367C15.6308 11.6367 15.6621 11.6406 15.6918 11.649C16.2929 11.8163 16.3063 12.4835 16.2118 13.0143Z" fill="white"/>
<path d="M21.3221 11.5166C21.2047 11.2795 21.0458 11.0781 20.8512 10.9187C20.6555 10.7593 20.424 10.6408 20.1617 10.5675C19.5638 10.4014 18.9157 10.6223 18.4274 11.1592C17.8492 11.7951 17.4269 12.9869 17.9767 14.4231C18.3536 15.4074 18.9464 15.588 19.3295 15.588C19.3709 15.588 19.41 15.5858 19.4458 15.5824C20.4648 15.4857 21.321 14.1367 21.486 13.2117C21.6046 12.549 21.5492 11.9785 21.3221 11.5166ZM20.3809 13.0143C20.3295 13.3034 20.1482 13.6859 19.9201 13.9885C19.6846 14.3 19.4542 14.4538 19.3396 14.4644C19.2702 14.4711 19.1399 14.3213 19.0253 14.0215C18.7954 13.4208 18.7183 12.5081 19.2579 11.9141C19.4196 11.7369 19.6069 11.6367 19.7674 11.6367C19.7998 11.6367 19.8312 11.6406 19.8613 11.649C20.4626 11.8163 20.4754 12.4835 20.3809 13.0143Z" fill="white"/>
</svg>
